<mxfile host="app.diagrams.net" modified="2023-12-05T14:13:16.132Z" agent="Mozilla/5.0 (Windows NT 10.0; Win64; x64; rv:120.0) Gecko/20100101 Firefox/120.0" etag="maYGAvlaEN1M378lqYOb" version="22.1.5" type="device">
  <diagram name="Page-1" id="2YBvvXClWsGukQMizWep">
    <mxGraphModel dx="704" dy="655" grid="1" gridSize="10" guides="1" tooltips="1" connect="1" arrows="1" fold="1" page="1" pageScale="1" pageWidth="850" pageHeight="1100" math="0" shadow="0">
      <root>
        <mxCell id="0" />
        <mxCell id="1" parent="0" />
        <mxCell id="BLuaFJLdWNyJqqPmt2Zu-1" value="CKB platform" style="shape=umlLifeline;perimeter=lifelinePerimeter;whiteSpace=wrap;html=1;container=0;dropTarget=0;collapsible=0;recursiveResize=0;outlineConnect=0;portConstraint=eastwest;newEdgeStyle={&quot;edgeStyle&quot;:&quot;elbowEdgeStyle&quot;,&quot;elbow&quot;:&quot;vertical&quot;,&quot;curved&quot;:0,&quot;rounded&quot;:0};" vertex="1" parent="1">
          <mxGeometry x="330" y="240" width="100" height="490" as="geometry" />
        </mxCell>
        <mxCell id="BLuaFJLdWNyJqqPmt2Zu-2" value="" style="html=1;points=[];perimeter=orthogonalPerimeter;outlineConnect=0;targetShapes=umlLifeline;portConstraint=eastwest;newEdgeStyle={&quot;edgeStyle&quot;:&quot;elbowEdgeStyle&quot;,&quot;elbow&quot;:&quot;vertical&quot;,&quot;curved&quot;:0,&quot;rounded&quot;:0};" vertex="1" parent="BLuaFJLdWNyJqqPmt2Zu-1">
          <mxGeometry x="45" y="70" width="10" height="30" as="geometry" />
        </mxCell>
        <mxCell id="BLuaFJLdWNyJqqPmt2Zu-3" value="" style="html=1;points=[];perimeter=orthogonalPerimeter;outlineConnect=0;targetShapes=umlLifeline;portConstraint=eastwest;newEdgeStyle={&quot;edgeStyle&quot;:&quot;elbowEdgeStyle&quot;,&quot;elbow&quot;:&quot;vertical&quot;,&quot;curved&quot;:0,&quot;rounded&quot;:0};" vertex="1" parent="BLuaFJLdWNyJqqPmt2Zu-1">
          <mxGeometry x="45" y="260" width="10" height="220" as="geometry" />
        </mxCell>
        <mxCell id="BLuaFJLdWNyJqqPmt2Zu-4" value="" style="html=1;points=[[0,0,0,0,5],[0,1,0,0,-5],[1,0,0,0,5],[1,1,0,0,-5]];perimeter=orthogonalPerimeter;outlineConnect=0;targetShapes=umlLifeline;portConstraint=eastwest;newEdgeStyle={&quot;curved&quot;:0,&quot;rounded&quot;:0};" vertex="1" parent="BLuaFJLdWNyJqqPmt2Zu-1">
          <mxGeometry x="50" y="280" width="10" height="20" as="geometry" />
        </mxCell>
        <mxCell id="BLuaFJLdWNyJqqPmt2Zu-5" value="&lt;font style=&quot;font-size: 9px;&quot;&gt;6 : validateBadgeInfo()&lt;/font&gt;" style="html=1;align=left;spacingLeft=2;endArrow=block;rounded=0;edgeStyle=orthogonalEdgeStyle;curved=0;rounded=0;" edge="1" parent="BLuaFJLdWNyJqqPmt2Zu-1" target="BLuaFJLdWNyJqqPmt2Zu-4">
          <mxGeometry relative="1" as="geometry">
            <mxPoint x="55" y="270.0344827586208" as="sourcePoint" />
            <Array as="points">
              <mxPoint x="80" y="270" />
              <mxPoint x="80" y="280" />
            </Array>
          </mxGeometry>
        </mxCell>
        <mxCell id="BLuaFJLdWNyJqqPmt2Zu-6" value="&lt;font style=&quot;font-size: 9px;&quot;&gt;Educator&lt;/font&gt;" style="shape=umlActor;verticalLabelPosition=bottom;verticalAlign=top;html=1;outlineConnect=0;" vertex="1" parent="1">
          <mxGeometry x="170" y="240" width="20" height="40" as="geometry" />
        </mxCell>
        <mxCell id="BLuaFJLdWNyJqqPmt2Zu-7" value="" style="endArrow=none;dashed=1;html=1;rounded=0;" edge="1" parent="1" source="BLuaFJLdWNyJqqPmt2Zu-9">
          <mxGeometry width="50" height="50" relative="1" as="geometry">
            <mxPoint x="180" y="550" as="sourcePoint" />
            <mxPoint x="180" y="300" as="targetPoint" />
          </mxGeometry>
        </mxCell>
        <mxCell id="BLuaFJLdWNyJqqPmt2Zu-8" value="" style="endArrow=none;dashed=1;html=1;rounded=0;" edge="1" parent="1" target="BLuaFJLdWNyJqqPmt2Zu-9">
          <mxGeometry width="50" height="50" relative="1" as="geometry">
            <mxPoint x="180" y="730" as="sourcePoint" />
            <mxPoint x="179.99999999999994" y="701.3" as="targetPoint" />
          </mxGeometry>
        </mxCell>
        <mxCell id="BLuaFJLdWNyJqqPmt2Zu-9" value="" style="html=1;points=[];perimeter=orthogonalPerimeter;outlineConnect=0;targetShapes=umlLifeline;portConstraint=eastwest;newEdgeStyle={&quot;edgeStyle&quot;:&quot;elbowEdgeStyle&quot;,&quot;elbow&quot;:&quot;vertical&quot;,&quot;curved&quot;:0,&quot;rounded&quot;:0};" vertex="1" parent="1">
          <mxGeometry x="175" y="310" width="10" height="410" as="geometry" />
        </mxCell>
        <mxCell id="BLuaFJLdWNyJqqPmt2Zu-10" value="&lt;font style=&quot;font-size: 9px;&quot;&gt;1 : click(createBadgeButton)&lt;/font&gt;" style="html=1;verticalAlign=bottom;endArrow=block;edgeStyle=elbowEdgeStyle;elbow=vertical;curved=0;rounded=0;" edge="1" parent="1" source="BLuaFJLdWNyJqqPmt2Zu-9" target="BLuaFJLdWNyJqqPmt2Zu-2">
          <mxGeometry relative="1" as="geometry">
            <mxPoint x="220" y="310" as="sourcePoint" />
            <Array as="points">
              <mxPoint x="300" y="310" />
            </Array>
            <mxPoint x="385" y="310" as="targetPoint" />
          </mxGeometry>
        </mxCell>
        <mxCell id="BLuaFJLdWNyJqqPmt2Zu-11" value="&lt;font style=&quot;font-size: 9px;&quot;&gt;2 : showPage(badgeCreationPage)&lt;/font&gt;" style="html=1;verticalAlign=bottom;endArrow=openThin;dashed=1;endSize=8;edgeStyle=elbowEdgeStyle;elbow=vertical;curved=0;rounded=0;endFill=0;" edge="1" parent="1" source="BLuaFJLdWNyJqqPmt2Zu-2" target="BLuaFJLdWNyJqqPmt2Zu-9">
          <mxGeometry relative="1" as="geometry">
            <mxPoint x="220" y="340" as="targetPoint" />
            <Array as="points">
              <mxPoint x="275" y="340" />
            </Array>
            <mxPoint x="350" y="340" as="sourcePoint" />
          </mxGeometry>
        </mxCell>
        <mxCell id="BLuaFJLdWNyJqqPmt2Zu-12" value="" style="html=1;points=[[0,0,0,0,5],[0,1,0,0,-5],[1,0,0,0,5],[1,1,0,0,-5]];perimeter=orthogonalPerimeter;outlineConnect=0;targetShapes=umlLifeline;portConstraint=eastwest;newEdgeStyle={&quot;curved&quot;:0,&quot;rounded&quot;:0};" vertex="1" parent="1">
          <mxGeometry x="180" y="370" width="10" height="60" as="geometry" />
        </mxCell>
        <mxCell id="BLuaFJLdWNyJqqPmt2Zu-13" value="&lt;font style=&quot;font-size: 9px;&quot;&gt;5 : send(badgeInfo)&lt;/font&gt;" style="html=1;verticalAlign=bottom;endArrow=block;edgeStyle=elbowEdgeStyle;elbow=vertical;curved=0;rounded=0;" edge="1" parent="1">
          <mxGeometry relative="1" as="geometry">
            <mxPoint x="184.99999999999977" y="500" as="sourcePoint" />
            <Array as="points">
              <mxPoint x="300" y="500" />
            </Array>
            <mxPoint x="375" y="500" as="targetPoint" />
          </mxGeometry>
        </mxCell>
        <mxCell id="BLuaFJLdWNyJqqPmt2Zu-14" value="&lt;font style=&quot;font-size: 9px;&quot;&gt;7 : displayOutcome(confirmation)&lt;/font&gt;" style="html=1;verticalAlign=bottom;endArrow=openThin;dashed=1;endSize=8;edgeStyle=elbowEdgeStyle;elbow=vertical;curved=0;rounded=0;endFill=0;" edge="1" parent="1">
          <mxGeometry relative="1" as="geometry">
            <mxPoint x="184.99999999999977" y="580" as="targetPoint" />
            <Array as="points">
              <mxPoint x="280" y="580" />
            </Array>
            <mxPoint x="375" y="580" as="sourcePoint" />
          </mxGeometry>
        </mxCell>
        <mxCell id="BLuaFJLdWNyJqqPmt2Zu-15" value="&lt;b&gt;alt &lt;/b&gt;outcome == true" style="shape=umlFrame;whiteSpace=wrap;html=1;pointerEvents=0;width=120;height=15;fontSize=11;" vertex="1" parent="1">
          <mxGeometry x="110" y="550" width="320" height="180" as="geometry" />
        </mxCell>
        <mxCell id="BLuaFJLdWNyJqqPmt2Zu-16" value="[then]" style="text;html=1;strokeColor=none;fillColor=none;align=center;verticalAlign=middle;whiteSpace=wrap;rounded=0;fontSize=10;" vertex="1" parent="1">
          <mxGeometry x="120" y="570" width="35" height="10" as="geometry" />
        </mxCell>
        <mxCell id="BLuaFJLdWNyJqqPmt2Zu-17" value="" style="endArrow=none;dashed=1;html=1;rounded=0;exitX=0.001;exitY=0.409;exitDx=0;exitDy=0;exitPerimeter=0;strokeWidth=2;" edge="1" parent="1">
          <mxGeometry width="50" height="50" relative="1" as="geometry">
            <mxPoint x="110" y="640.75" as="sourcePoint" />
            <mxPoint x="430" y="640" as="targetPoint" />
          </mxGeometry>
        </mxCell>
        <mxCell id="BLuaFJLdWNyJqqPmt2Zu-18" value="[else]" style="text;html=1;strokeColor=none;fillColor=none;align=center;verticalAlign=middle;whiteSpace=wrap;rounded=0;fontSize=10;" vertex="1" parent="1">
          <mxGeometry x="120" y="650" width="35" height="10" as="geometry" />
        </mxCell>
        <mxCell id="BLuaFJLdWNyJqqPmt2Zu-19" value="&lt;font style=&quot;font-size: 9px;&quot;&gt;10 : displayOutcome(error)&lt;/font&gt;" style="html=1;verticalAlign=bottom;endArrow=openThin;dashed=1;endSize=8;edgeStyle=elbowEdgeStyle;elbow=vertical;curved=0;rounded=0;endFill=0;" edge="1" parent="1" source="BLuaFJLdWNyJqqPmt2Zu-3" target="BLuaFJLdWNyJqqPmt2Zu-9">
          <mxGeometry relative="1" as="geometry">
            <mxPoint x="184.99999999999977" y="680" as="targetPoint" />
            <Array as="points">
              <mxPoint x="280" y="670" />
            </Array>
            <mxPoint x="375" y="680" as="sourcePoint" />
          </mxGeometry>
        </mxCell>
        <mxCell id="BLuaFJLdWNyJqqPmt2Zu-20" value="&lt;font style=&quot;font-size: 9px;&quot;&gt;3 : fillBadgeCreationForm(data)&lt;/font&gt;" style="html=1;align=left;spacingLeft=2;endArrow=block;rounded=0;edgeStyle=orthogonalEdgeStyle;curved=0;rounded=0;" edge="1" parent="1" source="BLuaFJLdWNyJqqPmt2Zu-9" target="BLuaFJLdWNyJqqPmt2Zu-12">
          <mxGeometry relative="1" as="geometry">
            <mxPoint x="190" y="360" as="sourcePoint" />
            <Array as="points">
              <mxPoint x="210" y="360" />
              <mxPoint x="210" y="370" />
            </Array>
            <mxPoint x="195" y="390" as="targetPoint" />
          </mxGeometry>
        </mxCell>
        <mxCell id="BLuaFJLdWNyJqqPmt2Zu-21" value="&lt;p style=&quot;line-height: 120%;&quot;&gt;&lt;font style=&quot;font-size: 10px;&quot;&gt;&lt;b&gt;loop&lt;/b&gt;: outcome == false&lt;/font&gt;&lt;/p&gt;" style="shape=umlFrame;whiteSpace=wrap;html=1;pointerEvents=0;width=70;height=40;verticalAlign=middle;horizontal=1;labelPosition=center;verticalLabelPosition=middle;align=center;" vertex="1" parent="1">
          <mxGeometry x="90" y="350" width="450" height="390" as="geometry" />
        </mxCell>
        <mxCell id="BLuaFJLdWNyJqqPmt2Zu-22" value="" style="html=1;points=[[0,0,0,0,5],[0,1,0,0,-5],[1,0,0,0,5],[1,1,0,0,-5]];perimeter=orthogonalPerimeter;outlineConnect=0;targetShapes=umlLifeline;portConstraint=eastwest;newEdgeStyle={&quot;curved&quot;:0,&quot;rounded&quot;:0};" vertex="1" parent="1">
          <mxGeometry x="180" y="470" width="10" height="20" as="geometry" />
        </mxCell>
        <mxCell id="BLuaFJLdWNyJqqPmt2Zu-23" value="&lt;font style=&quot;font-size: 9px;&quot;&gt;4 : click(confirmationButton)&lt;/font&gt;" style="html=1;align=left;spacingLeft=2;endArrow=block;rounded=0;edgeStyle=orthogonalEdgeStyle;curved=0;rounded=0;" edge="1" parent="1" target="BLuaFJLdWNyJqqPmt2Zu-22">
          <mxGeometry relative="1" as="geometry">
            <mxPoint x="185" y="460" as="sourcePoint" />
            <Array as="points">
              <mxPoint x="210" y="460" />
              <mxPoint x="210" y="470" />
            </Array>
            <mxPoint x="195" y="490" as="targetPoint" />
          </mxGeometry>
        </mxCell>
        <mxCell id="BLuaFJLdWNyJqqPmt2Zu-26" value="&lt;font style=&quot;font-size: 9px;&quot;&gt;8 : click(continueButton)&lt;/font&gt;" style="html=1;verticalAlign=bottom;endArrow=block;edgeStyle=elbowEdgeStyle;elbow=vertical;curved=0;rounded=0;" edge="1" parent="1" source="BLuaFJLdWNyJqqPmt2Zu-9" target="BLuaFJLdWNyJqqPmt2Zu-3">
          <mxGeometry relative="1" as="geometry">
            <mxPoint x="184.99999999999977" y="600" as="sourcePoint" />
            <Array as="points">
              <mxPoint x="300" y="600" />
            </Array>
            <mxPoint x="375" y="600" as="targetPoint" />
          </mxGeometry>
        </mxCell>
        <mxCell id="BLuaFJLdWNyJqqPmt2Zu-27" value="&lt;font style=&quot;font-size: 9px;&quot;&gt;9 : showPage(createTournamentPage)&lt;/font&gt;" style="html=1;verticalAlign=bottom;endArrow=openThin;dashed=1;endSize=8;edgeStyle=elbowEdgeStyle;elbow=vertical;curved=0;rounded=0;endFill=0;" edge="1" parent="1" source="BLuaFJLdWNyJqqPmt2Zu-3" target="BLuaFJLdWNyJqqPmt2Zu-9">
          <mxGeometry relative="1" as="geometry">
            <mxPoint x="184.99999999999977" y="620" as="targetPoint" />
            <Array as="points">
              <mxPoint x="280" y="620" />
            </Array>
            <mxPoint x="375" y="620" as="sourcePoint" />
          </mxGeometry>
        </mxCell>
        <mxCell id="BLuaFJLdWNyJqqPmt2Zu-28" value="&lt;font style=&quot;font-size: 9px;&quot;&gt;11 : click(continueButton)&lt;/font&gt;" style="html=1;verticalAlign=bottom;endArrow=block;edgeStyle=elbowEdgeStyle;elbow=vertical;curved=0;rounded=0;" edge="1" parent="1" source="BLuaFJLdWNyJqqPmt2Zu-9" target="BLuaFJLdWNyJqqPmt2Zu-3">
          <mxGeometry relative="1" as="geometry">
            <mxPoint x="185" y="690" as="sourcePoint" />
            <Array as="points">
              <mxPoint x="300" y="690" />
            </Array>
            <mxPoint x="375" y="690" as="targetPoint" />
          </mxGeometry>
        </mxCell>
        <mxCell id="BLuaFJLdWNyJqqPmt2Zu-29" value="&lt;font style=&quot;font-size: 9px;&quot;&gt;12 : showPage(tournamentCreationPage)&lt;/font&gt;" style="html=1;verticalAlign=bottom;endArrow=openThin;dashed=1;endSize=8;edgeStyle=elbowEdgeStyle;elbow=vertical;curved=0;rounded=0;endFill=0;" edge="1" parent="1" source="BLuaFJLdWNyJqqPmt2Zu-3" target="BLuaFJLdWNyJqqPmt2Zu-9">
          <mxGeometry relative="1" as="geometry">
            <mxPoint x="185" y="710" as="targetPoint" />
            <Array as="points">
              <mxPoint x="280" y="710" />
            </Array>
            <mxPoint x="375" y="710" as="sourcePoint" />
          </mxGeometry>
        </mxCell>
      </root>
    </mxGraphModel>
  </diagram>
</mxfile>
